<?xml version="1.0" encoding="utf-8"?>
<!-- Generator: Adobe Illustrator 19.0.0, SVG Export Plug-In . SVG Version: 6.00 Build 0)  -->
<svg version="1.1" id="Слой_1" xmlns="http://www.w3.org/2000/svg" xmlns:xlink="http://www.w3.org/1999/xlink" x="0px" y="0px"
	 width="51px" height="51px" viewBox="0 0 51 51" style="enable-background:new 0 0 51 51;" xml:space="preserve">
<style type="text/css">
	.st0{fill:#FFFFFF;}
</style>
<g id="XMLID_14_">
	<path id="XMLID_24_" class="st0" d="M20,8H8v12h12V8z M16,16h-4v-4h4V16z"/>
	<path id="XMLID_36_" class="st0" d="M0,0v51h51V0H0z M23,46H5V28h18V46z M23,23H5V5h18V23z M46,46H28V28h18V46z M46,18h-5v5h-8v-5
		h-5v-8h5V5h8v5h5V18z"/>
	<polygon id="XMLID_40_" class="st0" points="18,45 22,41 18,37 14,41 	"/>
	<polygon id="XMLID_41_" class="st0" points="22,33 18,29 14,33 18,37 	"/>
	<polygon id="XMLID_42_" class="st0" points="10,45 14,41 10,37 6,41 	"/>
	<polygon id="XMLID_43_" class="st0" points="10,29 6,33 10,37 14,33 	"/>
	<path id="XMLID_46_" class="st0" d="M37,44c3.9,0,7-3.1,7-7c0-3.9-3.1-7-7-7s-7,3.1-7,7C30,40.9,33.1,44,37,44z M37,34
		c1.7,0,3,1.3,3,3c0,1.7-1.3,3-3,3c-1.7,0-3-1.3-3-3C34,35.3,35.3,34,37,34z"/>
</g>
<g id="XMLID_16_">
</g>
<g id="XMLID_17_">
</g>
<g id="XMLID_18_">
</g>
<g id="XMLID_19_">
</g>
<g id="XMLID_20_">
</g>
<g id="XMLID_21_">
</g>
</svg>
